<svg xmlns="http://www.w3.org/2000/svg" viewBox="0 0 1056.48 146.27"><g id="Layer_2" data-name="Layer 2"><g id="Layer_1-2" data-name="Layer 1"><path d="M0,128.12l6.91-27,3.88.76q3.72,18.53,13.26,28.59a30.66,30.66,0,0,0,23.09,10.07q12.18,0,19.73-7.55t7.56-19.62q0-11.4-6-18.47T43.26,79.5l-4.84-2.09q-17.87-7.6-24.09-14.82a38.06,38.06,0,0,1-6.9-11.54A37,37,0,0,1,5.09,37.9Q5.09,21.66,16,10.83T43.43,0A55.07,55.07,0,0,1,62.12,3.47a86,86,0,0,1,19.56,10.3L76,37.9l-3.54-.76Q69,22.41,60.83,14.2A26.11,26.11,0,0,0,41.7,6q-11,0-17.52,6.32T17.61,29a22.7,22.7,0,0,0,5.53,15.57q5.52,6.27,21.76,13.59,1.73.75,5,2.28,22.35,9.87,28.75,16.81A33.48,33.48,0,0,1,85.87,89a44.56,44.56,0,0,1,2.37,15q0,18.33-12.09,30.3t-30.91,12A64.62,64.62,0,0,1,21,141.61,66.77,66.77,0,0,1,0,128.12Z"/><path d="M170.79,136.1a25.19,25.19,0,0,1-6.95,7.32,14.23,14.23,0,0,1-7.9,2.47q-5.62,0-8.38-3.42t-2.76-10.26v-.57a60.3,60.3,0,0,1-14.12,10.59,29.29,29.29,0,0,1-13.51,3.66q-8.64,0-13.69-5.66t-5-15.14q0-11.79,9.28-20.57T144.8,83.39v-14q0-8.75-2.77-13a9.13,9.13,0,0,0-8.2-4.28q-4.92,0-7.68,2.71t-5.27,12.2a13.26,13.26,0,0,1-3.71,6.6,8.51,8.51,0,0,1-6,2.52,7.36,7.36,0,0,1-5.7-2.61,9.43,9.43,0,0,1-2.33-6.51q0-8.07,8.85-14t22-5.89q13.74,0,19.78,6.08t6,20v55.85a16.53,16.53,0,0,0,1,6.51,3.1,3.1,0,0,0,2.94,2,3.81,3.81,0,0,0,2.54-.91,8.55,8.55,0,0,0,2-2.8Zm-26-47.39q-17.53,8-24.18,14.86a22.36,22.36,0,0,0-6.65,16q0,7.5,3.59,12.2a11,11,0,0,0,9.19,4.7q4.14,0,8.94-3.27A38.65,38.65,0,0,0,144.8,124Z"/><path d="M202.56,144.84,178.73,65.53a34.77,34.77,0,0,0-3.58-8.45q-2-3.22-3.85-3.61V50h27.38v3.51a5.54,5.54,0,0,0-3.76,1.66,6.27,6.27,0,0,0-1.17,4.14,26.32,26.32,0,0,0,.44,4.41q.42,2.52,1.29,5.75l16,54.61,13.39-49.77A45.3,45.3,0,0,0,226,69.14a28.13,28.13,0,0,0,.35-4.18,16.15,16.15,0,0,0-1.6-7.69,7.79,7.79,0,0,0-4.62-3.89V50h22.79v3.51q-3.62,1.71-7,8.36T228.9,80.92l-18.22,63.92Z"/><path d="M317.74,136.1a25.06,25.06,0,0,1-6.95,7.32,14.2,14.2,0,0,1-7.9,2.47q-5.61,0-8.37-3.42t-2.77-10.26v-.57a60.26,60.26,0,0,1-14.11,10.59,29.33,29.33,0,0,1-13.52,3.66q-8.62,0-13.68-5.66t-5.05-15.14q0-11.79,9.28-20.57t37.08-21.13v-14q0-8.75-2.76-13a9.14,9.14,0,0,0-8.2-4.28c-3.28,0-5.85.9-7.69,2.71s-3.59,5.87-5.26,12.2a13.2,13.2,0,0,1-3.72,6.6,8.48,8.48,0,0,1-5.95,2.52,7.34,7.34,0,0,1-5.7-2.61,9.38,9.38,0,0,1-2.33-6.51q0-8.07,8.85-14t22-5.89q13.73,0,19.77,6.08t6,20v55.85a16.35,16.35,0,0,0,1,6.51,3.09,3.09,0,0,0,2.93,2,3.82,3.82,0,0,0,2.55-.91,8.69,8.69,0,0,0,2-2.8Zm-26-47.39q-17.52,8-24.17,14.86a22.32,22.32,0,0,0-6.65,16q0,7.5,3.58,12.2a11.06,11.06,0,0,0,9.2,4.7q4.14,0,8.93-3.27a38.46,38.46,0,0,0,9.11-9.17Z"/><path d="M324.82,143.13v-3.7a5.58,5.58,0,0,0,5-3.09c1-1.93,1.51-5.05,1.51-9.36V74.65c0-4.24-.51-7.2-1.51-8.88s-2.81-2.67-5.4-3V59.84a36.12,36.12,0,0,0,10.49-4.75,42.2,42.2,0,0,0,8.85-7.89h2.76V64.77l3.29-2.27q21.59-15.3,29.09-15.3a10.85,10.85,0,0,1,9.37,4.85q3.4,4.85,3.41,13.29V127q0,6.66,1.47,9.45a5.57,5.57,0,0,0,5,3v3.7H369.89v-3.7a5.66,5.66,0,0,0,5.05-3q1.51-2.79,1.52-9.45V73.7c0-5-.6-8.42-1.77-10.26s-3.27-2.75-6.26-2.75q-3.37,0-8.85,2.37a103,103,0,0,0-13.09,7.13V127q0,6.66,1.52,9.45a5.66,5.66,0,0,0,5.05,3v3.7Z"/><path d="M417.81,56.23h-11V51.86a47.08,47.08,0,0,0,13.47-16.34q5.08-10,7.77-25.26H433V50h15.2v6.27H433.36v63.92q0,7.3,1.51,10.49a5.06,5.06,0,0,0,4.87,3.18,8,8,0,0,0,3.55-.85,10.78,10.78,0,0,0,3.19-2.47l2.42,2.28a22.77,22.77,0,0,1-7.34,9.69,17,17,0,0,1-10.28,3.42q-6.9,0-10.19-4.56t-3.28-14.16Z"/><path d="M525,73.87h51.37v70.07H562.71l-.17-22.9a45.14,45.14,0,0,1-40.25,24.85C491,145.89,466,117.52,466,74.66,466,31.4,492.47,4,524.64,4c25.1,0,47,15.85,51.21,42.46h-15c-4.38-16.44-18-26.81-36.22-26.81-24.59,0-42.95,21.14-42.95,55s17.86,55.77,42.11,55.77c19.88,0,37.23-16.44,38.57-40.51v-1H525Z"/><path d="M631.1,146.08c-24.09,0-43.29-19.64-43.29-50.77,0-30.94,20.38-49.47,42.28-49.47,22.06,0,41.6,17,41.6,50.4v3.89H602.3c1.17,19.45,13.3,32.61,29.13,32.61,11.29,0,20.89-5,25.44-16.12H671C666,136.26,648.78,146.08,631.1,146.08ZM602.3,87.53H657C656,69.93,644.57,59,629.75,59,615.77,59,603.64,69.74,602.3,87.53Z"/><path d="M698.3,144H684.15v-96h14V62.33c5.06-9.63,14.83-16.49,27.8-16.49,18.86,0,31.33,12.6,31.33,38V144H743.11V85.68c0-17.05-8.42-26.31-21.39-26.31-12.3,0-23.42,10.19-23.42,30.38Z"/><path d="M774.44,10.64h14.48v18.9H774.44Zm.17,37.42h14.14v96H774.61Z"/><path d="M864.38,129.77c-5.39,10-14.65,16.31-27,16.31-18.36,0-31.33-12.6-31.33-37.24V48.06h14.15v58.55c0,17,8.59,25.94,21.06,25.94,11.62,0,22.73-9.82,22.73-29.46v-55h14.15v96H864.38Z"/><path d="M890,114.21h13.65c1.85,12.6,11.79,19.08,23.92,19.08,10.44,0,20.55-5,20.55-15.19,0-8.89-7.42-13-20.22-15.75l-9.26-1.85C902.28,97,892.34,88.83,892.34,74.56c0-17.79,14.82-28.9,32.68-28.9,17.69,0,32.34,10.56,34.53,28.53H946.07c-2.19-9.82-10.27-15.56-21.56-15.56-10.44,0-18.86,5.93-18.86,14.63,0,8,6.06,11.31,17.18,13.71l9.26,2c18,3.71,29.65,11.49,29.65,27.61,0,19.08-16.68,29.65-34.36,29.65C908.18,146.27,892,135.33,890,114.21Z"/><path d="M989.86,4.79H976V0h32.75V4.79H995V43.55h-5.09Z"/><path d="M1019.61,4V43.55h-4.87V0h8.37l12.62,37.39L1048.34,0h8.14V43.55h-4.86V4l-13.41,39.57H1033Z"/></g></g></svg>